<svg width="16" height="16" fill="none" xmlns="http://www.w3.org/2000/svg"><path fill-rule="evenodd" clip-rule="evenodd" d="M14.938 6.426v-.619H16v-.553h-1.062v-.618H16v-.579h-1.062V3.44H16v-.615a1.31 1.31 0 00-1.307-1.312H11.67a1.31 1.31 0 00-1.307 1.312v.624h1.07v.618h-1.07v.579h1.07v.618h-1.07v.553h1.07v.618h-1.07v.657a1.31 1.31 0 001.103 1.295v-.311c0-.363.293-.656.654-.656h.109l-3.003 4.184a2.34 2.34 0 00-2.224-.123L3.808 5.907h.074c.361 0 .653.294.653.656v.31A1.31 1.31 0 005.638 5.58v-.666H4.575v-.617h1.062v-.554H4.575v-.618h1.062v-.578H4.575v-.618h1.062v-.616A1.31 1.31 0 004.33 0H1.307A1.31 1.31 0 000 1.312v.624h1.07v.618H0v.579h1.07v.618H0v.553h1.07v.618H0v.657a1.31 1.31 0 001.103 1.295v-.31c0-.32.226-.585.526-.645l4.275 6.616A2.373 2.373 0 007.999 16a2.374 2.374 0 002.159-3.333s3.974-4.912 4.233-5.23c.29.067.506.326.506.638v.31A1.31 1.31 0 0016 7.092v-.666h-1.063zM8 14.934c-.718 0-1.3-.584-1.3-1.305s.582-1.306 1.3-1.306c.718 0 1.3.585 1.3 1.306 0 .72-.582 1.305-1.3 1.305z" fill="#DC0027"/></svg>