<svg width="16" height="16" fill="none" xmlns="http://www.w3.org/2000/svg"><path fill-rule="evenodd" clip-rule="evenodd" d="M8 0a8 8 0 100 16A8 8 0 008 0zM4.525 13.437c-.467-.277-.99-.726-1.485-1.22-1.706-1.701-1.05-3.523-1.05-3.523.03.049.41.145.41.145s.123.672.161.71c.039.04.142.059.31.104s.226-.032.213-.149c-.013-.116-.064-.516-.064-.516s.265.052.969.206c.704.155.865.162.994.51.129.35.394.872.781 1.286.388.413.549.451.665.768.117.316.375 2.306.381 2.422 0 0-1.006.016-2.285-.743zm8.474-1.22c-.496.494-1.018.943-1.486 1.22-1.278.76-2.286.743-2.286.743.007-.117.265-2.105.382-2.421.116-.316.277-.355.665-.769.387-.413.652-.936.78-1.285.13-.349.291-.355.995-.51.704-.155.969-.206.969-.206s-.052.4-.065.516c-.013.117.046.194.214.149.168-.045.271-.065.31-.104.038-.039.16-.71.16-.71s.382-.097.41-.145c0 0 .658 1.822-1.048 3.522zm.807-5.857c-.198.022-.28.026-.32.065-.042.038-.054.107-.054.107l-.022-.007s.143-.169-.137-.235c-.281-.067-.583-.115-.636-.08-.054.033-.008.074.029.103.037.029.05.095.05.095s-.425.003-1.181-.003c-.757-.006-1.124.045-1.53-.21C9.602 5.94 9 5.557 8.02 5.557c-.98 0-1.606.428-1.808.54-.201.111-.37.205-1.252.232 0 0-1.466.066-1.555.045-.089-.021.071-.085-.014-.16-.086-.074-.685.086-.735.126-.05.04.026.129.026.129l-.022.003s-.016-.145-.195-.16c-.096-.008-.517.017-.622-.23-.123-.291.043-.526.245-.775.436-.538.848-1.133.96-1.318.11-.184.106-.174.058-.261 0 0 .063-.005.145-.13.081-.127 1.66-2.117 4.77-2.112 3.108.005 4.717 2.048 4.809 2.155 0 0 .074.09.108.115 0 0-.04.12.029.22.068.099.757 1.037 1.057 1.445.3.409.294.533.238.7-.056.166-.255.219-.454.24h-.002z" fill="#DC0027"/></svg>