<svg width="28" height="26" fill="none" xmlns="http://www.w3.org/2000/svg"><path d="M10.377 4.121h6.641v1.201h-6.641v-1.2zm4.731 4.805h8.634v1.201h-8.634V8.926z" fill="#000"/><path fill-rule="evenodd" clip-rule="evenodd" d="M26.248.003H8.026c-.98 0-1.47.866-1.47 1.518v3.604L1.983 9.853C.29 11.603-.127 13.688.031 14.94c.123.993 1.229 7.623 1.645 10.122l.156.937h1.104c-.017-.103-1.643-10.03-1.793-11.206-.125-.996.232-2.67 1.635-4.119l3.785-3.93v5.517L3.26 15.728l.789.824 2.523-2.66 1.121-1.15 3.196-3.27s1.188.859-.324 2.952L9.103 14.45l-.914 1.159s-.207.266-.207.61c0 .329.139.493.245.618l.013.016c.44.549 1.062 1.51 1.062 2.368 0 1.296-1.254 2.677-1.27 2.693l.407.395.406.404c.067-.069 1.578-1.732 1.578-3.492 0-1.278-.83-2.334-1.32-2.934l.531-.678h4.151v3.466c0 1.7-2.076 2.798-2.1 2.806l-.307.164V26h1.163v-3.26c.713-.447 2.408-1.717 2.408-3.665v-3.458h11.315c.764 0 1.47-.66 1.47-1.528V1.518C27.724.711 27.11 0 26.246 0l.001.003zm.316 14.19c0 .087-.083.224-.224.224H10.518l.855-1.261c.166-.18 1.096-1.27 1.121-2.635.016-1.021-.73-1.88-.73-1.88-.166-.342-.506-.463-.698-.497 0 0-.465-.103-.797.24-.074.077-2.631 2.685-2.631 2.685v-9.73c0-.104.092-.215.207-.215H26.35c.125 0 .217.103.217.206v12.862l-.002.002z" fill="#000"/></svg>