<svg width="34" height="29" fill="none" xmlns="http://www.w3.org/2000/svg"><path fill-rule="evenodd" clip-rule="evenodd" d="M18.923 11.92c.137.143.15.164.194.237.022.035.05.081.102.158v-.325h3.636v2.899s1.315.65 1.315 1.4V.066L12.955 0l-.001 11.017c.38.007.76.03 1.138.053l.486.029s3.823.275 4.345.822v-.001zm.298-8.932h3.635v3.163H19.22V2.988zm3.635 4.542H19.22v3.163h3.636V7.53zm-8.564-4.542h3.614v3.163h-3.614V2.988zm3.614 4.542H14.27v3.163h3.636V7.53zm8.109-1.31v20.31h7.128V6.22h-7.128zm5.575 18.682h-4.023v-2.901h4.023v2.901zm-4.006-4.528h4.007l-.017-2.902h-4.007l.017 2.902zm4.006-4.529h-4.023v-2.901h4.023v2.901zm-4.023-4.516h4.023V8.413h-4.023v2.916z" fill="#fff"/><path fill-rule="evenodd" clip-rule="evenodd" d="M24.424 23.636c-.011-.135-.011-.256-.011-.391l-.003-.102c-.01-.444-.02-.897-.02-1.34 0-.135 0-.27-.012-.39-.01-.355-.023-.721-.047-1.089a11.138 11.138 0 00-.14-1.222 1.317 1.317 0 00-.395-.734l-.035-.036a6.074 6.074 0 00-.874-.72l-.021-.01a.064.064 0 01-.026-.015c-.007-.007-.01-.01-.01-.013l-.001-.008v-.003l.194-.022.12-.015a.986.986 0 00.373-.11.418.418 0 00.199-.208l.005-.016c.01-.031.02-.065.03-.107a.48.48 0 00-.024-.22c-.082-.305-.233-.538-.467-.696a2.362 2.362 0 00-.29-.159 2.938 2.938 0 00-.642-.146c-.058 0-.105 0-.163.012-.128.024-.233.121-.291.28a.788.788 0 00-.06.183.989.989 0 00-.022.21 3.19 3.19 0 00-.002.306l.002.158c0 .01.002.017.003.023.003.01.004.018-.003.026-.01.036-.023.06-.058.06a3.412 3.412 0 00-.562-.025l-.137.001a.235.235 0 00-.015-.029c-.01-.02-.024-.044-.032-.07a35.862 35.862 0 00-.324-.66 26.695 26.695 0 00-.563-1.062l-.033-.061a3.043 3.043 0 01-.042-.076 13.34 13.34 0 00-.59-.952 16.06 16.06 0 00-.51-.708 1.428 1.428 0 00-.828-.525l-.214-.047a9.578 9.578 0 00-.45-.088l-.48-.072c-.244-.037-.49-.075-.744-.111a26.983 26.983 0 00-.895-.08l-.072-.006-.214-.014-.357-.022-.078-.004a47.875 47.875 0 00-1.62-.052l-.135-.002a15.745 15.745 0 00-.136-.003.22.22 0 01-.04-.006.227.227 0 00-.041-.005h-1.085c-.01 0-.02.002-.032.005a.208.208 0 01-.049.006 37.93 37.93 0 01-.59.012c-.219.003-.438.006-.657.013-.394.011-.787.036-1.182.06h-.007l-.473.04h-.001l-.423.034c-.42.037-.839.099-1.247.171-.105.02-.209.042-.313.064-.094.02-.188.041-.282.059-.163.025-.325.06-.477.122a1.311 1.311 0 00-.559.39c-.28.33-.524.684-.757 1.05a21.148 21.148 0 00-1.329 2.506l-.006.015a.232.232 0 01-.04.07h-.015a1.655 1.655 0 00-.347-.011 3.93 3.93 0 00-.362.05c-.047-.026-.058-.086-.058-.16a2.322 2.322 0 00-.01-.563 1.294 1.294 0 00-.095-.28.436.436 0 00-.372-.245 1.636 1.636 0 00-.944.256 1.18 1.18 0 00-.536.758c-.012.025-.012.061-.012.11-.01.208.058.33.234.415.233.11.477.147.734.16h.186c-.02.04-.038.047-.057.055l-.013.005-.066.044c-.197.13-.386.254-.564.41a3.363 3.363 0 00-.454.463.764.764 0 00-.128.257L.194 19c-.025.136-.05.271-.066.407-.016.162-.03.324-.044.486-.015.18-.03.36-.05.541l-.002.041a6.25 6.25 0 00-.02.448c0 .01-.003.023-.005.037a.456.456 0 00-.007.073v1.687c0 .026.003.049.006.07a.38.38 0 01.005.053l.019 1.002.016.844c0 .177-.003.35-.006.525a30.34 30.34 0 00-.005.525c.01.514.023 1.027.046 1.54.012.342.047.684.118 1.013.018.118.06.22.1.32l.028.071c.081.17.22.28.408.305a.03.03 0 01.015.005c.008.003.018.007.032.007h2.482c.186-.085.291-.256.362-.44.046-.146.08-.28.093-.428 0-.024 0-.05.011-.085h.221c.082-.012.163-.012.233-.012a.281.281 0 00.21-.134.908.908 0 01.094-.147l.116-.002a1.47 1.47 0 01.21.002l.039.003c.138.011.278.022.427.022.128 0 .257.022.38.044l.097.017c.126.013.25.03.374.046.106.014.211.028.313.04.338.035.676.06 1.014.084.094.006.188.009.282.012.104.003.208.006.313.013a74.65 74.65 0 002.171.013h.002l.752-.001a142.38 142.38 0 012.168-.003c.364.001.728.003 1.095.003.768 0 1.549 0 2.319-.012.385 0 .76-.023 1.145-.047l.032-.002a8.755 8.755 0 001.363-.17c.24-.053.481-.052.722-.05h.117c.023 0 .046.012.058.036l.01.02c.007.013.013.024.013.041a.318.318 0 00.268.195c.04.006.08.009.121.012.043.003.088.006.135.013.013.04.022.084.032.129.007.038.015.076.026.115l.024.08c.024.084.048.167.092.25a.542.542 0 00.423.334l.003.002c.006.003.011.006.017.006h2.296c.022-.006.047-.009.072-.012.027-.003.055-.006.08-.013.21-.049.36-.17.466-.39.094-.209.152-.416.186-.636a8.27 8.27 0 00.117-.917l.017-.372.018-.373a.558.558 0 00.01-.123v-2.527zm-7.842-8.541c-.047-.025-.07-.05-.082-.061a.548.548 0 00-.29-.146 2.594 2.594 0 00-.92-.037c-.068.01-.128.029-.193.049l-.041.012a.59.59 0 00-.326.33c-.011.03-.023.058-.035.085a2.374 2.374 0 00-.035.086c-.023.06-.043.116-.062.172-.021.06-.042.12-.066.182a13.484 13.484 0 00-.233.757c-.058 0-.118 0-.176.012a.119.119 0 00-.07.024.128.128 0 01-.094.037c-.256-.012-.5-.012-.757-.012h-1.329c-.18 0-.358.003-.536.006-.177.003-.355.005-.536.005-.019 0-.038.004-.055.007a.209.209 0 01-.038.005.785.785 0 01-.292 0c-.07-.024-.151-.036-.22.012-.011.011-.024.011-.035.011-.084-.026-.173-.02-.26-.015a1.698 1.698 0 01-.101.004h-.082a7.857 7.857 0 00-.093-.287c-.032-.095-.064-.19-.093-.288-.035-.11-.067-.22-.1-.33a8.263 8.263 0 00-.099-.33.561.561 0 00-.044-.123 1.229 1.229 0 01-.026-.06.56.56 0 00-.408-.343c-.326-.085-.653-.123-.98-.049a.644.644 0 00-.477.33c0 .006-.003.008-.005.011-.003.004-.006.007-.006.014h-.011c-.094-.147-.011-.33.093-.429a.595.595 0 01.338-.159c.092-.011.186-.025.282-.039.11-.016.224-.033.336-.046.133-.012.265-.026.399-.04.148-.016.299-.033.453-.046l1.491-.073c.047 0 .07 0 .105.036.128.146.303.22.477.245.077.012.158.018.239.024a3.24 3.24 0 01.28.03c.014.003.028.006.04.006.304.012.618-.011.92-.06a.981.981 0 00.467-.22.19.19 0 01.117-.037c.088.006.173.009.259.012.095.003.19.006.288.013.117.012.234.021.35.03.117.01.233.018.35.03a152.365 152.365 0 00.71.074c.257.025.501.061.747.11a.634.634 0 01.349.147c.07.06.105.146.128.244.005-.005.004-.002.001.007a.215.215 0 00-.012.067l-.001.004z" fill="#fff"/></svg>