<svg version="1.1" id="Layer_1" xmlns="http://www.w3.org/2000/svg" x="0" y="0" viewBox="0 0 512 512" xml:space="preserve"><path d="M476.92 493.76L240.333 256.32 476.707 18.24a10.623 10.623 0 000-15.04C474.68 1.067 472.013 0 469.24 0H286.627c-2.88 0-5.547 1.173-7.573 3.2L35.107 248.853a10.623 10.623 0 000 15.04l244.16 245.013c2.027 2.027 4.693 3.093 7.573 3.093h182.507c5.867 0 10.667-4.8 10.667-10.667-.001-2.772-1.067-5.545-3.094-7.572zm-185.707-3.093L57.72 256.32 291 21.333h152.533L217.72 248.853a10.623 10.623 0 000 15.04l225.92 226.773H291.213z"/></svg>