<svg width="30" height="29" fill="none" xmlns="http://www.w3.org/2000/svg"><path d="M14.5 19.295a4.796 4.796 0 100-9.592 4.796 4.796 0 000 9.592z" fill="#fff"/><path fill-rule="evenodd" clip-rule="evenodd" d="M25.7 12.889a11.315 11.315 0 00-9.575-9.586V1.416c0-.783-.71-1.416-1.586-1.416h-.075c-.875 0-1.586.633-1.586 1.416v1.887a11.314 11.314 0 00-9.575 9.585H1.356C.607 12.889 0 13.58 0 14.434v.133c0 .853.607 1.544 1.356 1.544h1.947a11.318 11.318 0 009.588 9.588v1.955c0 .744.691 1.347 1.544 1.347h.135c.853 0 1.544-.603 1.544-1.347v-1.955a11.315 11.315 0 009.588-9.588h1.886c.783 0 1.416-.69 1.416-1.544v-.133c0-.854-.633-1.544-1.416-1.544H25.7zm-11.2 9.759a8.149 8.149 0 110-16.298 8.149 8.149 0 010 16.298z" fill="#fff"/></svg>