<svg width="30" height="30" fill="none" xmlns="http://www.w3.org/2000/svg"><rect width="30" height="30" rx="15" fill="#C1B6AD"/><path d="M17.776 12.563c-.053-.497-.276-.883-.67-1.16-.39-.276-.898-.414-1.523-.414-.44 0-.816.066-1.13.198-.315.133-.555.313-.722.54a1.313 1.313 0 0 0-.256.779c0 .242.055.452.165.63.114.178.267.33.46.455.193.121.407.223.642.307.235.083.472.153.71.21l1.091.273c.44.102.862.24 1.267.415.41.174.775.393 1.097.659.326.265.583.585.773.96.19.375.284.814.284 1.318 0 .682-.174 1.282-.523 1.801-.348.515-.852.919-1.511 1.21-.656.288-1.45.432-2.381.432-.905 0-1.691-.14-2.358-.42-.663-.28-1.182-.69-1.557-1.228-.371-.537-.572-1.193-.602-1.965h2.074c.03.405.155.742.375 1.01.22.27.505.47.858.603a3.39 3.39 0 0 0 1.193.199c.458 0 .86-.068 1.204-.204.349-.14.622-.334.819-.58a1.4 1.4 0 0 0 .3-.875c-.003-.303-.092-.553-.266-.75-.174-.2-.419-.367-.733-.5a7.051 7.051 0 0 0-1.091-.364l-1.324-.34c-.958-.247-1.716-.62-2.273-1.12-.553-.504-.83-1.172-.83-2.006 0-.685.186-1.286.558-1.8.375-.516.884-.916 1.528-1.2.644-.288 1.373-.431 2.188-.431.825 0 1.549.143 2.17.431.625.284 1.116.68 1.472 1.188a3.02 3.02 0 0 1 .55 1.739h-2.028Z" fill="#403F3D"/></svg>