<svg width="30" height="30" fill="none" xmlns="http://www.w3.org/2000/svg"><rect width="30" height="30" rx="15" fill="#C1B6AD"/><path d="M15.5 21.16c-.819 0-1.546-.141-2.182-.421-.633-.28-1.133-.67-1.5-1.17a3.034 3.034 0 0 1-.586-1.734h2.137c.018.315.123.59.312.824.19.231.441.411.756.54a2.76 2.76 0 0 0 1.057.193c.416 0 .786-.072 1.108-.216a1.82 1.82 0 0 0 .755-.613c.182-.262.271-.563.267-.904a1.57 1.57 0 0 0-.272-.932c-.186-.269-.455-.479-.807-.63-.349-.152-.77-.228-1.262-.228h-1.028v-1.625h1.028c.406 0 .76-.07 1.063-.21.307-.14.547-.337.721-.59a1.52 1.52 0 0 0 .256-.893c.004-.33-.07-.615-.221-.858a1.497 1.497 0 0 0-.631-.574 2.074 2.074 0 0 0-.949-.204 2.5 2.5 0 0 0-.989.193 1.799 1.799 0 0 0-.733.551 1.396 1.396 0 0 0-.295.841h-2.028c.015-.652.202-1.223.562-1.716a3.63 3.63 0 0 1 1.455-1.159c.606-.28 1.286-.42 2.04-.42.776 0 1.45.145 2.022.437.576.288 1.02.676 1.335 1.165.315.489.472 1.028.472 1.62.004.654-.19 1.204-.58 1.647-.386.443-.894.733-1.522.87v.09c.818.114 1.445.417 1.88.91.44.488.658 1.096.654 1.823a2.92 2.92 0 0 1-.557 1.75c-.367.511-.875.913-1.523 1.205-.644.291-1.382.437-2.216.437Z" fill="#403F3D"/></svg>