<svg width="30" height="30" fill="none" xmlns="http://www.w3.org/2000/svg"><rect width="30" height="30" rx="15" fill="#C1B6AD"/><path d="M11.065 21v-1.523l4.04-3.96c.386-.39.708-.737.966-1.04.258-.303.45-.596.58-.88.128-.284.193-.588.193-.91 0-.367-.084-.681-.25-.943a1.663 1.663 0 0 0-.688-.613 2.216 2.216 0 0 0-.994-.216c-.383 0-.718.08-1.006.238a1.643 1.643 0 0 0-.67.665c-.155.288-.233.63-.233 1.029h-2.006c0-.739.169-1.381.506-1.926a3.413 3.413 0 0 1 1.392-1.268c.595-.299 1.276-.448 2.045-.448.78 0 1.466.145 2.057.437.591.292 1.05.691 1.375 1.199.33.508.494 1.087.494 1.739 0 .435-.083.863-.25 1.284-.166.42-.46.886-.88 1.397-.417.512-1.002 1.131-1.756 1.858l-2.006 2.04v.08h5.069V21h-7.978Z" fill="#403F3D"/></svg>